# xmcd CD database file
#
# Track frame offsets:
#	150
#	16395
#	27343
#	43292
#	56468
#	71307
#	84833
#	101135
#	113382
#	123548
#
# Disc length: 1836 seconds
#
# Revision: 2
# Processed by: cddbd v1.5.2PL0 Copyright (c) Steve Scherf et al.
# Submitted via: CDex 1.70beta2
#
DISCID=79072a0a
DTITLE=MoC - Men of Country - 30 #1 Hits - D3
DYEAR=2010
DGENRE=Country
TTITLE0=Exile - She's A Miracle
TTITLE1=Porter Wagoner - Misery Loves Company
TTITLE2=Doug Stone - A Jukebox With a Country Song
TTITLE3=T.G. Sheppard - Devil In The Bottle
TTITLE4=Don Gibson - Woman Sensuous Woman
TTITLE5=Mickey Gilley - Don't The Girls All Get Prettier At Closing Time
TTITLE6=T.G. Sheppard - I Loved 'Em Every One
TTITLE7=Exile - I Could Get Used To You
TTITLE8=Faron Young - Live Fast, Love Hard, Die Young
TTITLE9=T. Graham Brown  Darlene
EXTD=YEAR: 2010
EXTT0=
EXTT1=
EXTT2=
EXTT3=
EXTT4=
EXTT5=
EXTT6=
EXTT7=
EXTT8=
EXTT9=
PLAYORDER=
